{
  "accessors": [
    {
      "bufferView": 2,
      "componentType": 5126,
      "count": 622,
      "max": [
        15.354524612426758,
        6.680002212524414,
        16.340656280517578
      ],
      "min": [
        2.1883320808410645,
        1.8741029500961304,
        0.003993004560470581
      ],
      "type": "VEC3"
    },
    {
      "bufferView": 2,
      "byteOffset": 7464,
      "componentType": 5126,
      "count": 622,
      "max": [
        0.9810922145843506,
        0.9997095465660095,
        0.999907374382019
      ],
      "min": [
        -0.9974609017372131,
        -0.9944467544555664,
        -1.0
      ],
      "type": "VEC3"
    },
    {
      "bufferView": 1,
      "componentType": 5126,
      "count": 622,
      "max": [
        0.9921249747276306,
        1.0008820295333862
      ],
      "min": [
        0.0031349998898804188,
        0.2907339930534363
      ],
      "type": "VEC2"
    },
    {
      "bufferView": 0,
      "componentType": 5125,
      "count": 1980,
      "type": "SCALAR"
    },
    {
      "bufferView": 2,
      "byteOffset": 14928,
      "componentType": 5126,
      "count": 65532,
      "max": [
        16.414588928222656,
        7.593019485473633,
        20.398958206176758
      ],
      "min": [
        0.0,
        0.0,
        0.0
      ],
      "type": "VEC3"
    },
    {
      "bufferView": 2,
      "byteOffset": 801312,
      "componentType": 5126,
      "count": 65532,
      "max": [
        0.9999998807907104,
        0.9999977350234985,
        0.9999605417251587
      ],
      "min": [
        -0.9999935030937195,
        -1.0,
        -0.9999384880065918
      ],
      "type": "VEC3"
    },
    {
      "bufferView": 1,
      "byteOffset": 4976,
      "componentType": 5126,
      "count": 65532,
      "max": [
        0.994251012802124,
        0.999701976776123
      ],
      "min": [
        0.0006329999887384474,
        0.0037090000696480274
      ],
      "type": "VEC2"
    },
    {
      "bufferView": 0,
      "byteOffset": 7920,
      "componentType": 5125,
      "count": 334629,
      "type": "SCALAR"
    },
    {
      "bufferView": 2,
      "byteOffset": 1587696,
      "componentType": 5126,
      "count": 38350,
      "max": [
        16.344318389892578,
        7.599819183349609,
        20.33941650390625
      ],
      "min": [
        0.0,
        1.0634058713912964,
        2.833606004714966
      ],
      "type": "VEC3"
    },
    {
      "bufferView": 2,
      "byteOffset": 2047896,
      "componentType": 5126,
      "count": 38350,
      "max": [
        0.9999751448631287,
        0.999987781047821,
        0.9999511241912842
      ],
      "min": [
        -0.999962568283081,
        -0.9999096393585205,
        -0.9999274611473083
      ],
      "type": "VEC3"
    },
    {
      "bufferView": 1,
      "byteOffset": 529232,
      "componentType": 5126,
      "count": 38350,
      "max": [
        0.9967510104179382,
        0.9996680021286011
      ],
      "min": [
        0.0010509999701753259,
        0.005309999920427799
      ],
      "type": "VEC2"
    },
    {
      "bufferView": 0,
      "byteOffset": 1346436,
      "componentType": 5125,
      "count": 173892,
      "type": "SCALAR"
    }
  ],
  "asset": {
    "extras": {
      "author": "Benjamin Bardou (https://sketchfab.com/meryon)",
      "license": "CC-BY-4.0 (http://creativecommons.org/licenses/by/4.0/)",
      "source": "https://sketchfab.com/3d-models/la-renommee-louvre-museum-low-definition-556f5c7010844d8ea7b5bc16feb59d08",
      "title": "La Renommée - Louvre Museum (Low Definition)"
    },
    "generator": "Sketchfab-12.67.0",
    "version": "2.0"
  },
  "bufferViews": [
    {
      "buffer": 0,
      "byteLength": 2042004,
      "name": "floatBufferViews",
      "target": 34963
    },
    {
      "buffer": 0,
      "byteLength": 836032,
      "byteOffset": 2042004,
      "byteStride": 8,
      "name": "floatBufferViews",
      "target": 34962
    },
    {
      "buffer": 0,
      "byteLength": 2508096,
      "byteOffset": 2878036,
      "byteStride": 12,
      "name": "floatBufferViews",
      "target": 34962
    }
  ],
  "buffers": [
    {
      "byteLength": 5386132,
      "uri": "scene.bin"
    }
  ],
  "images": [
    {
      "uri": "textures/lambert2SG_emissive.jpeg"
    }
  ],
  "materials": [
    {
      "doubleSided": true,
      "emissiveFactor": [
        1.0,
        1.0,
        1.0
      ],
      "emissiveTexture": {
        "index": 0
      },
      "name": "lambert2SG",
      "pbrMetallicRoughness": {
        "baseColorFactor": [
          0.0,
          0.0,
          0.0,
          1.0
        ],
        "metallicFactor": 0.0
      }
    }
  ],
  "meshes": [
    {
      "name": "Object_0",
      "primitives": [
        {
          "attributes": {
            "NORMAL": 1,
            "POSITION": 0,
            "TEXCOORD_0": 2
          },
          "indices": 3,
          "material": 0,
          "mode": 4
        }
      ]
    },
    {
      "name": "Object_1",
      "primitives": [
        {
          "attributes": {
            "NORMAL": 5,
            "POSITION": 4,
            "TEXCOORD_0": 6
          },
          "indices": 7,
          "material": 0,
          "mode": 4
        }
      ]
    },
    {
      "name": "Object_2",
      "primitives": [
        {
          "attributes": {
            "NORMAL": 9,
            "POSITION": 8,
            "TEXCOORD_0": 10
          },
          "indices": 11,
          "material": 0,
          "mode": 4
        }
      ]
    }
  ],
  "nodes": [
    {
      "children": [
        1
      ],
      "matrix": [
        1.0,
        0.0,
        0.0,
        0.0,
        0.0,
        2.220446049250313e-16,
        -1.0,
        0.0,
        0.0,
        1.0,
        2.220446049250313e-16,
        0.0,
        0.0,
        0.0,
        0.0,
        1.0
      ],
      "name": "Sketchfab_model"
    },
    {
      "children": [
        2
      ],
      "matrix": [
        1.0,
        0.0,
        0.0,
        0.0,
        0.0,
        1.0,
        0.0,
        0.0,
        0.0,
        0.0,
        1.0,
        0.0,
        -9.547882080078125,
        -3.021498918533325,
        -0.42120200395584106,
        1.0
      ],
      "name": "RENOMME.obj.cleaner.gles"
    },
    {
      "children": [
        3,
        4,
        5
      ],
      "name": "Object_2"
    },
    {
      "mesh": 0,
      "name": "Object_3"
    },
    {
      "mesh": 1,
      "name": "Object_4"
    },
    {
      "mesh": 2,
      "name": "Object_5"
    }
  ],
  "samplers": [
    {
      "magFilter": 9729,
      "minFilter": 9987,
      "wrapS": 10497,
      "wrapT": 10497
    }
  ],
  "scene": 0,
  "scenes": [
    {
      "name": "Sketchfab_Scene",
      "nodes": [
        0
      ]
    }
  ],
  "textures": [
    {
      "sampler": 0,
      "source": 0
    }
  ]
}
